<?xml version="1.0" encoding="UTF-8"?>
<svg width="7.0021mm" height="13.147mm" version="1.1" viewBox="0 0 24.81 46.585" xmlns="http://www.w3.org/2000/svg" xmlnsCc="http://creativecommons.org/ns#" xmlnsDc="http://purl.org/dc/elements/1.1/" xmlnsRdf="http://www.w3.org/1999/02/22-rdf-syntax-ns#">
<g transform="translate(-148.9 -343.88)">
<path d="m149.53 355.87c0.022-1.3012 2.6684-11.843 11.953-11.512 9.3066 0.3308 11.534 10.321 11.512 11.622 0 1.3232-7.6968-3.7712-11.622-3.7932-3.9034-0.0221-11.865 4.9841-11.843 3.683z" fill="#fff" fill-rule="evenodd"/>
<path d="m149.53 355.87c0.022-1.3012 2.6684-11.843 11.953-11.512 9.3066 0.3308 11.534 10.321 11.512 11.622 0 1.3232-7.6968-3.7712-11.622-3.7932-3.9034-0.0221-11.865 4.9841-11.843 3.683" fill="none" stroke="#000" stroke-linejoin="round" stroke-width=".94831px"/>
<path d="m168.17 346.81c0.86022 0.97037 7.0352 6.2632 4.2342 12.769-2.7788 6.4838-14.974 25.053-18.216 30.412-1.4554-2.9111-1.9186-3.1318-4.8077-8.0495 3.2419-5.6018 14.666-22.385 17.775-28.185 3.1098-5.8001-0.022-7.4321 1.0146-6.9469z" fill="#fff" fill-rule="evenodd"/>
<path d="m168.17 346.81c0.86022 0.97037 7.0352 6.2632 4.2342 12.769-2.7788 6.4838-14.974 25.053-18.216 30.412-1.4554-2.9111-1.9186-3.1318-4.8077-8.0495 3.2419-5.6018 14.666-22.385 17.775-28.185 3.1098-5.8001-0.022-7.4321 1.0146-6.9469" fill="none" stroke="#000" stroke-linejoin="round" stroke-width=".94831px"/>
<path d="m154.4 346.74c-0.86022 0.97036-7.0572 6.2632-4.2565 12.747 2.8008 6.5058 15.019 25.075 18.261 30.434 1.4554-2.9111 1.9185-3.1315 4.8297-8.0495-3.2639-5.6016-14.71-22.384-17.82-28.185-3.1095-5.8001 0.022-7.4541-1.0143-6.9469z" fill="#fff" fill-rule="evenodd"/>
<path d="m154.4 346.74c-0.86022 0.97036-7.0572 6.2632-4.2565 12.747 2.8008 6.5058 15.019 25.075 18.261 30.434 1.4554-2.9111 1.9185-3.1315 4.8297-8.0495-3.2639-5.6016-14.71-22.384-17.82-28.185-3.1095-5.8001 0.022-7.4541-1.0143-6.9469" fill="none" stroke="#000" stroke-linejoin="round" stroke-width=".94831px"/>
</g>
</svg>
